<svg width="208" height="208" viewBox="0 0 208 208" fill="none" xmlns="http://www.w3.org/2000/svg">
<path d="M103.648 0C75.4903 0 71.9749 0.12956 60.9191 0.621888C49.8806 1.14013 42.3661 2.87623 35.7586 5.44152C28.9437 8.08455 23.1567 11.6345 17.3956 17.3956C11.6345 23.1567 8.07591 28.9351 5.44152 35.7586C2.87623 42.3661 1.13149 49.8806 0.621888 60.9191C0.103648 71.9749 0 75.4903 0 103.648C0 131.806 0.12956 135.321 0.621888 146.377C1.14013 157.407 2.87623 164.93 5.44152 171.538C8.04388 178.455 12.1233 184.721 17.3956 189.901C22.5718 195.176 28.8392 199.256 35.7586 201.855C42.3748 204.411 49.8893 206.165 60.9191 206.674C71.9749 207.192 75.4903 207.296 103.648 207.296C131.806 207.296 135.321 207.167 146.377 206.674C157.407 206.156 164.93 204.411 171.538 201.855C178.453 199.249 184.719 195.17 189.901 189.901C195.178 184.726 199.258 178.458 201.855 171.538C204.411 164.93 206.165 157.407 206.674 146.377C207.192 135.321 207.296 131.806 207.296 103.648C207.296 75.4903 207.167 71.9749 206.674 60.9191C206.156 49.8893 204.411 42.3575 201.855 35.7586C199.251 28.842 195.172 22.5757 189.901 17.3956C184.728 12.1151 178.46 8.03436 171.538 5.44152C164.93 2.87623 157.407 1.13149 146.377 0.621888C135.321 0.103648 131.806 0 103.648 0ZM103.648 18.6567C131.313 18.6567 134.613 18.7948 145.539 19.2699C155.645 19.745 161.13 21.4206 164.774 22.8544C169.629 24.7287 173.066 26.9744 176.711 30.5935C180.33 34.2211 182.576 37.6674 184.45 42.5216C185.867 46.1666 187.56 51.6513 188.018 61.757C188.51 72.6918 188.622 75.974 188.622 103.648C188.622 131.322 188.493 134.613 187.983 145.539C187.456 155.645 185.772 161.13 184.347 164.774C182.661 169.272 180.01 173.347 176.582 176.711C173.232 180.143 169.16 182.786 164.662 184.45C161.035 185.867 155.463 187.56 145.358 188.018C134.354 188.51 131.115 188.622 103.389 188.622C75.6544 188.622 72.4154 188.493 61.4201 187.983C51.3058 187.456 45.7347 185.772 42.107 184.347C37.6061 182.681 33.536 180.028 30.1961 176.582C26.7289 173.254 24.0698 169.177 22.4225 164.662C20.9974 161.035 19.3217 155.463 18.7948 145.358C18.4062 134.475 18.268 131.115 18.268 103.518C18.268 75.9136 18.4062 72.545 18.7948 61.5324C19.3217 51.4267 20.9974 45.8643 22.4225 42.2366C24.2364 37.3133 26.5598 33.9447 30.1961 30.3084C33.8152 26.6894 37.1924 24.3573 42.107 22.5521C45.7347 21.1183 51.1849 19.434 61.2905 18.9158C72.3032 18.5271 75.5422 18.3975 103.259 18.3975L103.648 18.6567ZM103.648 50.4248C96.6587 50.4248 89.7377 51.8014 83.2804 54.4762C76.823 57.1509 70.9558 61.0713 66.0135 66.0135C61.0713 70.9558 57.1509 76.823 54.4762 83.2804C51.8014 89.7377 50.4248 96.6587 50.4248 103.648C50.4248 110.637 51.8014 117.558 54.4762 124.016C57.1509 130.473 61.0713 136.34 66.0135 141.283C70.9558 146.225 76.823 150.145 83.2804 152.82C89.7377 155.495 96.6587 156.871 103.648 156.871C117.764 156.871 131.301 151.264 141.283 141.283C151.264 131.301 156.871 117.764 156.871 103.648C156.871 89.5324 151.264 75.9948 141.283 66.0135C131.301 56.0322 117.764 50.4248 103.648 50.4248ZM103.648 138.197C84.5595 138.197 69.0987 122.737 69.0987 103.648C69.0987 84.5595 84.5595 69.0987 103.648 69.0987C122.737 69.0987 138.197 84.5595 138.197 103.648C138.197 122.737 122.737 138.197 103.648 138.197ZM171.417 48.3259C171.297 51.5444 169.934 54.5911 167.614 56.8256C165.295 59.0602 162.2 60.3087 158.979 60.3087C155.758 60.3087 152.663 59.0602 150.343 56.8256C148.024 54.5911 146.661 51.5444 146.541 48.3259C146.541 45.0272 147.851 41.8636 150.184 39.5311C152.517 37.1985 155.68 35.8881 158.979 35.8881C162.278 35.8881 165.441 37.1985 167.774 39.5311C170.106 41.8636 171.417 45.0272 171.417 48.3259Z" fill="black"/>
</svg>
